    <svg width="11" height="20" viewBox="0 0 11 20" fill="none" xmlns="http://www.w3.org/2000/svg">
<path d="M9.689 0.999986H7.274C6.66846 0.965754 6.06262 1.0618 5.49735 1.28165C4.93209 1.5015 4.42056 1.84003 3.99728 2.27441C3.57399 2.70878 3.2488 3.2289 3.04364 3.79965C2.83848 4.37041 2.75812 4.97853 2.808 5.58299V7.69999H0.380001C0.279219 7.69999 0.182563 7.74002 0.1113 7.81129C0.0400357 7.88255 0 7.9792 0 8.07999V11.142C0 11.2428 0.0400357 11.3394 0.1113 11.4107C0.182563 11.482 0.279219 11.522 0.380001 11.522H2.808V19.248C2.808 19.3488 2.84804 19.4454 2.9193 19.5167C2.99056 19.588 3.08722 19.628 3.188 19.628H6.356C6.45678 19.628 6.55344 19.588 6.6247 19.5167C6.69596 19.4454 6.736 19.3488 6.736 19.248V11.518H9.575C9.6249 11.518 9.67432 11.5082 9.72042 11.4891C9.76652 11.47 9.80841 11.442 9.8437 11.4067C9.87899 11.3714 9.90698 11.3295 9.92607 11.2834C9.94517 11.2373 9.955 11.1879 9.955 11.138V8.07599C9.955 7.9752 9.91496 7.87855 9.8437 7.80729C9.77244 7.73602 9.67578 7.69599 9.575 7.69599H6.735V5.89999C6.735 5.03899 6.94 4.59999 8.062 4.59999H9.689C9.78978 4.59999 9.88644 4.55995 9.9577 4.48869C10.029 4.41742 10.069 4.32077 10.069 4.21999V1.38399C10.0695 1.33375 10.0601 1.2839 10.0412 1.23734C10.0224 1.19077 9.99446 1.14841 9.95913 1.1127C9.92379 1.07698 9.88172 1.04864 9.83535 1.02929C9.78898 1.00994 9.73924 0.999983 9.689 0.999986Z" fill="#0C0C41"/>
</svg>
