<svg width="18" height="19" viewBox="0 0 18 19" fill="none" xmlns="http://www.w3.org/2000/svg">
<path d="M4.06719 6.56H0.221191V18.11H4.06719V6.56Z" fill="#0C0C41"/>
<path d="M16.6924 7.61499C16.2856 7.17582 15.7884 6.8301 15.2351 6.6017C14.6818 6.37329 14.0855 6.26761 13.4874 6.29197C13.0359 6.28674 12.5861 6.34772 12.1524 6.47297C11.7855 6.57663 11.4414 6.74864 11.1384 6.97998C10.6925 7.3126 10.3146 7.7278 10.0254 8.20298V6.56098H6.19238L6.20438 7.12098C6.21238 7.49432 6.21637 8.64431 6.21637 10.571C6.21637 12.4976 6.20871 15.0113 6.19337 18.112H10.0284V11.661C10.0171 11.3413 10.0604 11.0221 10.1564 10.717C10.3139 10.3261 10.5686 9.98187 10.8964 9.71698C11.2465 9.4429 11.6821 9.30125 12.1264 9.31698C12.4109 9.29589 12.6961 9.34859 12.9543 9.47C13.2126 9.5914 13.4351 9.77739 13.6004 10.01C13.9454 10.5876 14.1098 11.2552 14.0724 11.927V18.104H17.9074V11.484C18.005 10.0872 17.571 8.70517 16.6924 7.61499Z" fill="#0C0C41"/>
<path d="M2.1682 0.999994C1.59156 0.974743 1.0282 1.17774 0.600197 1.56499C0.404466 1.74651 0.249703 1.96768 0.146237 2.21376C0.0427717 2.45983 -0.00701596 2.72515 0.000197143 2.99199C-0.00640738 3.25647 0.0420037 3.51943 0.142362 3.76422C0.24272 4.009 0.392837 4.23027 0.583197 4.41399C0.788118 4.60751 1.0299 4.7578 1.29413 4.8559C1.55836 4.954 1.83964 4.9979 2.1212 4.98499H2.1442C2.72532 5.0109 3.29305 4.80559 3.7232 4.41399C3.91796 4.23334 4.07141 4.01277 4.17306 3.76735C4.27472 3.52193 4.32218 3.25745 4.3122 2.99199C4.31616 2.72599 4.26549 2.46201 4.16332 2.21638C4.06115 1.97075 3.90965 1.74871 3.7182 1.56399C3.51028 1.3717 3.26611 1.22279 2.99998 1.12595C2.73384 1.02911 2.45107 0.98629 2.1682 0.999994Z" fill="#0C0C41"/>
</svg>
