<svg width="20" height="20" viewBox="0 0 20 20" fill="none" xmlns="http://www.w3.org/2000/svg">
<g clip-path="url(#clip0_8177_71)">
<path d="M12.0964 16.6667C12.0964 18.5077 10.6039 20 8.76297 20C6.922 20 5.42969 18.5077 5.42969 16.6667C5.42969 14.8257 6.922 13.3333 8.76297 13.3333C10.6039 13.3333 12.0964 14.8257 12.0964 16.6667Z" fill="#22215B"/>
<path d="M14.603 9.93424C11.778 9.53079 9.59641 7.10159 9.59641 4.16672C9.59641 3.33328 9.77463 2.54257 10.0905 1.82495C9.66385 1.72501 9.22058 1.66672 8.76297 1.66672C5.54642 1.66672 2.92969 4.28329 2.92969 7.5V9.8233C2.92969 11.4725 2.20718 13.0292 0.939636 14.1008C0.61554 14.3774 0.429688 14.7816 0.429688 15.2083C0.429688 16.0126 1.08383 16.6667 1.88797 16.6667H15.638C16.4423 16.6667 17.0964 16.0126 17.0964 15.2083C17.0964 14.7816 16.9106 14.3774 16.5781 14.0933C15.3481 13.0525 14.6347 11.5416 14.603 9.93424Z" fill="#22215B"/>
<path d="M19.5966 4.16672C19.5966 6.4679 17.7311 8.33328 15.4299 8.33328C13.1287 8.33328 11.2632 6.4679 11.2632 4.16672C11.2632 1.86554 13.1287 0 15.4299 0C17.7311 0 19.5966 1.86554 19.5966 4.16672Z" fill="#4CE364"/>
</g>
<defs>
<clipPath id="clip0_8177_71">
<rect width="20" height="20" fill="white"/>
</clipPath>
</defs>
</svg>
